<?xml version="1.0" encoding="UTF-8" standalone="no"?>
<svg
   xmlns:dc="http://purl.org/dc/elements/1.1/"
   xmlns:cc="http://creativecommons.org/ns#"
   xmlns:rdf="http://www.w3.org/1999/02/22-rdf-syntax-ns#"
   xmlns:svg="http://www.w3.org/2000/svg"
   xmlns="http://www.w3.org/2000/svg"
   xmlns:sodipodi="http://sodipodi.sourceforge.net/DTD/sodipodi-0.dtd"
   xmlns:inkscape="http://www.inkscape.org/namespaces/inkscape"
   width="800"
   height="381.19858"
   viewBox="0 0 640.00002 304.95887"
   version="1.1"
   id="svg2"
   inkscape:version="0.91 r13725"
   sodipodi:docname="BMW Group.svg">
  <metadata
     id="metadata293">
    <rdf:RDF>
      <cc:Work
         rdf:about="">
        <dc:format>image/svg+xml</dc:format>
        <dc:type
           rdf:resource="http://purl.org/dc/dcmitype/StillImage" />
        <dc:title></dc:title>
      </cc:Work>
    </rdf:RDF>
  </metadata>
  <sodipodi:namedview
     pagecolor="#ffffff"
     bordercolor="#666666"
     borderopacity="1"
     objecttolerance="10"
     gridtolerance="10"
     guidetolerance="10"
     inkscape:pageopacity="0"
     inkscape:pageshadow="2"
     inkscape:window-width="1280"
     inkscape:window-height="738"
     id="namedview291"
     showgrid="false"
     fit-margin-top="0"
     fit-margin-left="0"
     fit-margin-right="0"
     fit-margin-bottom="0"
     units="px"
     inkscape:zoom="0.67280632"
     inkscape:cx="112.49949"
     inkscape:cy="22.286198"
     inkscape:window-x="-8"
     inkscape:window-y="-8"
     inkscape:window-maximized="1"
     inkscape:current-layer="svg2" />
  <defs
     id="defs4">
    <clipPath
       id="clip2">
      <path
         d="m 29.054688,767.38672 62.941406,0 0,-30.83203 -62.941406,0 z"
         id="path67"
         inkscape:connector-curvature="0" />
    </clipPath>
  </defs>
  <g
     id="g3717"
     transform="matrix(10.695913,0,0,10.695913,-329.44247,-7883.6399)">
    <g
       clip-path="url(#clip2)"
       id="g103"
       style="clip-rule:nonzero">
      <path
         style="fill:#000000;fill-opacity:1;fill-rule:nonzero;stroke:none"
         d="m 83.058594,754.71094 2.667969,0 c 0.648437,0 1.160156,0.16406 1.53125,0.48828 0.375,0.32422 0.5625,0.78515 0.5625,1.375 0,0.59765 -0.203125,1.08203 -0.609375,1.4414 -0.390625,0.34375 -0.894532,0.51172 -1.515625,0.51172 l -2.636719,0 z m 0,10.5664 0,-4.58984 2.914062,0 c 1.390625,0 2.507813,-0.35938 3.347657,-1.07813 0.878906,-0.7539 1.316406,-1.76171 1.316406,-3.02734 0,-1.24609 -0.378906,-2.23047 -1.144531,-2.95703 -0.761719,-0.71484 -1.824219,-1.07031 -3.179688,-1.07031 l -5.976562,0 0,12.72265 z m -14.800781,-4.96093 c 0,1.60546 0.421875,2.86328 1.269531,3.78125 0.910156,0.98828 2.269531,1.48437 4.078125,1.48437 1.757812,0 3.085937,-0.45703 3.988281,-1.36719 0.921875,-0.92968 1.382813,-2.22656 1.382813,-3.89843 l 0,-7.76172 -2.75,0 0,7.94531 c 0,1.86719 -0.867188,2.80078 -2.597657,2.80078 -1.746093,0 -2.621093,-0.93359 -2.621093,-2.80078 l 0,-7.94531 -2.75,0 z m -4.703125,-4.58204 c 0.59375,0.78125 0.890625,1.84375 0.890625,3.19141 0,1.46875 -0.359375,2.59766 -1.074219,3.38672 -0.589844,0.65625 -1.371094,0.98828 -2.332031,0.98828 -1.074219,0 -1.914063,-0.40234 -2.519532,-1.20312 -0.582031,-0.77735 -0.875,-1.83204 -0.875,-3.17188 0,-1.34766 0.292969,-2.41016 0.875,-3.19141 0.609375,-0.80859 1.4375,-1.21093 2.488282,-1.21093 1.082031,0 1.933593,0.40234 2.546875,1.21093 m -7.078125,-1.70312 c -1.089844,1.17187 -1.632813,2.80859 -1.632813,4.89844 0,2.28906 0.652344,4.01562 1.953125,5.1875 1.082031,0.97656 2.496094,1.46484 4.242188,1.46484 1.945312,0 3.46875,-0.59375 4.566406,-1.78125 1.09375,-1.17578 1.640625,-2.79687 1.640625,-4.87109 0,-2.07813 -0.546875,-3.71485 -1.640625,-4.89844 -1.09375,-1.19141 -2.597656,-1.78125 -4.515625,-1.78125 -1.976563,0 -3.515625,0.59375 -4.613281,1.78125 m -9.941407,0.67969 2.652344,0 c 0.730469,0 1.273438,0.1289 1.632813,0.39062 0.363281,0.26172 0.542968,0.69531 0.542968,1.30078 0,1.17969 -0.726562,1.76953 -2.175781,1.76953 l -2.652344,0 z m 0,10.5664 0,-4.96093 2.734375,0 2.316407,4.96093 3.082031,0 -2.726563,-5.41406 c 1.492188,-0.69141 2.238282,-1.82812 2.238282,-3.41016 0,-1.11328 -0.285157,-1.98828 -0.855469,-2.63671 -0.730469,-0.84375 -1.875,-1.26172 -3.429688,-1.26172 l -6.101562,0 0,12.72265 z m -5.328125,-11.44531 c -0.910156,-1.05469 -2.316406,-1.58203 -4.21875,-1.58203 -1.945312,0 -3.464843,0.60937 -4.566406,1.82812 -1.082031,1.19922 -1.621094,2.85157 -1.621094,4.96094 0,2.33985 0.648438,4.08594 1.953125,5.23438 0.984375,0.87109 2.253907,1.30859 3.816407,1.30859 1.695312,0 2.972656,-0.53125 3.828125,-1.58984 l 0.289062,1.28515 1.757813,0 0,-6.73047 -4.722657,0 0,1.99219 2.042969,0 0,0.58594 c 0,0.65234 -0.277344,1.1875 -0.832031,1.59766 -0.527344,0.38671 -1.199219,0.57812 -2.011719,0.57812 -1.058594,0 -1.875,-0.36328 -2.445312,-1.08984 -0.582032,-0.73047 -0.875,-1.78516 -0.875,-3.16407 0,-1.41796 0.277343,-2.51953 0.832031,-3.30468 0.578125,-0.8125 1.394531,-1.21875 2.457031,-1.21875 1.476563,0 2.457031,0.76953 2.941406,2.3164 l 2.578125,-0.6289 c -0.273437,-0.98047 -0.675781,-1.77735 -1.203125,-2.37891"
         id="path105"
         inkscape:connector-curvature="0" />
      <path
         style="fill:#000000;fill-opacity:1;fill-rule:nonzero;stroke:none"
         d="m 64.097656,749.79687 2.367188,-8.98437 2.242187,8.98437 2.980469,0 3.089844,-12.72656 -2.800781,0 -1.921875,9.17969 -2.171875,-9.17969 -2.722657,0 -2.246093,9.17969 -1.871094,-9.17969 -2.871094,0 2.917969,12.72656 z m -18.140625,0.008 0,-9.06641 3.015625,9.06641 2.25,0 3,-9.06641 0,9.06641 2.605469,0 0,-12.72266 -3.601562,0 -3.066407,9.44922 -3.105468,-9.44922 -3.683594,0 0,12.72266 z m -12,-10.56641 2.898438,0 c 0.566406,0 0.996094,0.0664 1.296875,0.19922 0.488281,0.21484 0.730469,0.62109 0.730469,1.21875 0,0.49609 -0.160157,0.85937 -0.476563,1.08984 -0.308594,0.23047 -0.824219,0.34375 -1.550781,0.34375 l -2.898438,0 z m 0,4.99609 2.867188,0 c 0.757812,0 1.324219,0.0977 1.699219,0.28907 0.488281,0.25 0.730468,0.72265 0.730468,1.40625 0,0.57422 -0.152343,0.98828 -0.460937,1.24609 -0.375,0.3125 -1.03125,0.46875 -1.96875,0.46875 l -2.867188,0 z m 2.816407,5.57032 c 3.5,0 5.25,-1.27735 5.25,-3.82422 0,-1.41797 -0.679688,-2.39844 -2.042969,-2.94141 1.09375,-0.52734 1.640625,-1.4375 1.640625,-2.72656 0,-1.13281 -0.449219,-1.98047 -1.34375,-2.54688 -0.714844,-0.45703 -1.683594,-0.68359 -2.910156,-0.68359 l -6.113282,0 0,12.72266 z"
         id="path107"
         inkscape:connector-curvature="0" />
    </g>
  </g>
</svg>
