<?xml version="1.0" encoding="utf-8"?>
<!-- Generator: Adobe Illustrator 16.0.0, SVG Export Plug-In . SVG Version: 6.00 Build 0)  -->
<!DOCTYPE svg PUBLIC "-//W3C//DTD SVG 1.1//EN" "http://www.w3.org/Graphics/SVG/1.1/DTD/svg11.dtd">
<svg version="1.1" id="Ebene_1" xmlns="http://www.w3.org/2000/svg" xmlns:xlink="http://www.w3.org/1999/xlink" x="0px" y="0px"
	 viewBox="0 0 126.035 32.944" enable-background="new 0 0 126.035 32.944"
	 xml:space="preserve">
<g>
	<path d="M122.296,2.159v1.155h0.952c0.135,0,0.249-0.028,0.339-0.085c0.091-0.057,0.159-0.127,0.204-0.212
		c0.045-0.084,0.07-0.179,0.073-0.28c0.003-0.102-0.02-0.195-0.065-0.281c-0.045-0.085-0.11-0.155-0.199-0.212
		s-0.199-0.085-0.336-0.085H122.296L122.296,2.159z M124.456,4.818V4.92h-0.537l-0.986-1.164h-0.636V4.92h-0.485V1.7h1.453
		c0.233,0,0.429,0.045,0.587,0.136c0.158,0.09,0.279,0.205,0.365,0.344c0.084,0.139,0.134,0.292,0.149,0.459
		c0.013,0.167-0.009,0.326-0.069,0.476c-0.058,0.15-0.156,0.28-0.289,0.391c-0.133,0.11-0.304,0.18-0.513,0.208L124.456,4.818
		L124.456,4.818z M120.444,3.34c0,0.368,0.057,0.711,0.171,1.028c0.112,0.317,0.276,0.593,0.493,0.828
		c0.215,0.235,0.478,0.421,0.79,0.556c0.31,0.136,0.667,0.204,1.068,0.204c0.403,0,0.759-0.068,1.072-0.204
		c0.311-0.135,0.575-0.321,0.79-0.556s0.379-0.511,0.492-0.828c0.112-0.317,0.17-0.66,0.17-1.028c0-0.362-0.058-0.704-0.17-1.023
		c-0.113-0.32-0.277-0.598-0.492-0.833c-0.215-0.235-0.479-0.421-0.79-0.557c-0.313-0.136-0.669-0.204-1.072-0.204
		c-0.401,0-0.759,0.068-1.068,0.204c-0.312,0.136-0.575,0.321-0.79,0.557c-0.217,0.235-0.381,0.512-0.493,0.833
		C120.5,2.636,120.444,2.978,120.444,3.34L120.444,3.34z M122.966,0.239c0.493,0,0.932,0.082,1.313,0.246
		c0.384,0.164,0.703,0.388,0.961,0.671c0.257,0.283,0.454,0.613,0.59,0.99s0.204,0.774,0.204,1.193c0,0.419-0.068,0.817-0.204,1.194
		s-0.333,0.707-0.59,0.99c-0.258,0.283-0.577,0.507-0.961,0.671c-0.382,0.164-0.82,0.246-1.313,0.246
		c-0.492,0-0.928-0.082-1.307-0.246c-0.38-0.165-0.7-0.388-0.96-0.671c-0.261-0.283-0.459-0.613-0.595-0.99
		c-0.137-0.376-0.204-0.774-0.204-1.194c0-0.419,0.067-0.817,0.204-1.193c0.136-0.376,0.334-0.707,0.595-0.99
		c0.26-0.283,0.58-0.507,0.96-0.671C122.039,0.321,122.474,0.239,122.966,0.239L122.966,0.239z"/>
	<path d="M28.747,28.25c-3.25,3.204-7.445,4.693-12.005,4.693C5.008,32.944,0.045,24.866,0,16.652C-0.045,8.394,5.325,0,16.742,0
		C21.03,0,25.09,1.625,28.34,4.829L24.37,8.665c-2.076-2.031-4.875-2.978-7.628-2.978c-7.626,0-10.921,5.686-10.876,10.965
		c0.045,5.234,3.069,10.695,10.876,10.695c2.753,0,5.867-1.128,7.942-3.203L28.747,28.25L28.747,28.25z"/>
	<polygon points="53.576,32.221 29.928,32.221 29.928,0.632 53.576,0.632 53.576,6.408 35.84,6.408 35.84,13.674 52.944,13.674 
		52.944,19.224 35.84,19.224 35.84,26.355 53.576,26.355 53.576,32.221 	"/>
	<path d="M61.798,26.67h9.117c2.436,0,5.912-0.812,5.912-3.79c0-2.844-3.477-4.332-5.912-4.332h-9.117V26.67L61.798,26.67z
		 M61.798,13.313h9.117c3.746,0,4.963-1.58,4.963-3.385c0-1.444-1.174-3.881-4.963-3.881h-9.117V13.313L61.798,13.313z
		 M81.791,9.793c0,2.437-1.174,4.784-4.107,6.092c3.701,1.128,5.057,5.054,5.057,7.04c0,7.04-5.281,9.296-11.824,9.296H55.932V0.632
		h14.983C77.142,0.632,81.791,3.43,81.791,9.793"/>
	<polygon points="84.046,0.632 89.958,0.632 89.958,32.221 84.046,32.221 84.046,0.632 	"/>
	<polygon points="101.139,6.047 91.404,6.047 91.404,0.632 116.833,0.632 116.833,6.047 107.097,6.047 107.097,32.221 
		101.139,32.221 101.139,6.047 	"/>
</g>
<g>
</g>
<g>
</g>
<g>
</g>
<g>
</g>
<g>
</g>
<g>
</g>
</svg>
